<svg width="27" height="26" viewBox="0 0 27 26" fill="none" xmlns="http://www.w3.org/2000/svg">
<g clip-path="url(#clip0_3714_1228)">
<path d="M2.47543 6.5036C2.68404 6.50332 2.89063 6.54435 3.08329 6.62433C3.27596 6.7043 3.45088 6.82163 3.59796 6.96956L11.7236 15.0941C11.9694 15.34 12.2613 15.5351 12.5826 15.6682C12.9038 15.8013 13.2481 15.8698 13.5959 15.8698C13.9436 15.8698 14.2879 15.8013 14.6092 15.6682C14.9304 15.5351 15.2223 15.34 15.4682 15.0941L23.5811 6.98015C23.7276 6.82843 23.9029 6.70742 24.0967 6.62416C24.2905 6.54091 24.4989 6.49709 24.7099 6.49526C24.9208 6.49343 25.1299 6.53362 25.3252 6.61349C25.5204 6.69336 25.6977 6.81131 25.8469 6.96046C25.996 7.1096 26.114 7.28696 26.1939 7.48218C26.2737 7.6774 26.3139 7.88657 26.3121 8.09748C26.3102 8.3084 26.2664 8.51684 26.1832 8.71064C26.0999 8.90445 25.9789 9.07973 25.8272 9.22626L17.7143 17.3402C16.6213 18.4312 15.1401 19.0439 13.5959 19.0439C12.0516 19.0439 10.5704 18.4312 9.47747 17.3402L1.35185 9.21567C1.12955 8.99351 0.978144 8.71041 0.916793 8.40218C0.855441 8.09395 0.8869 7.77445 1.00719 7.4841C1.12748 7.19375 1.33119 6.94561 1.59254 6.77108C1.8539 6.59654 2.16116 6.50346 2.47543 6.5036V6.5036Z" fill="#585858" fill-opacity="0.3"/>
</g>
<defs>
<clipPath id="clip0_3714_1228">
<rect width="25.4157" height="25.4157" fill="white" transform="translate(0.876465 0.0660095)"/>
</clipPath>
</defs>
</svg>
