<svg width="29" height="30" viewBox="0 0 29 30" fill="none" xmlns="http://www.w3.org/2000/svg">
<g id="mic_black_24dp 1" clip-path="url(#clip0_3056_6207)">
<path id="Vector" d="M14.3615 17.3682C16.3639 17.3682 17.9682 15.7518 17.9682 13.7494L17.9803 6.51167C17.9803 4.50924 16.3639 2.89282 14.3615 2.89282C12.359 2.89282 10.7426 4.50924 10.7426 6.51167V13.7494C10.7426 15.7518 12.359 17.3682 14.3615 17.3682ZM20.7548 13.7494C20.7548 17.3682 17.6908 19.9014 14.3615 19.9014C11.0321 19.9014 7.96816 17.3682 7.96816 13.7494H5.91748C5.91748 17.8628 9.19857 21.2645 13.1552 21.8556V25.8122H15.5677V21.8556C19.5243 21.2766 22.8054 17.8749 22.8054 13.7494H20.7548Z" fill="white"/>
</g>
<defs>
<clipPath id="clip0_3056_6207">
<rect width="28.9508" height="28.9508" fill="white" transform="translate(0.0478516 0.833008)"/>
</clipPath>
</defs>
</svg>
