<svg width="25" height="25" viewBox="0 0 25 25" fill="none" xmlns="http://www.w3.org/2000/svg">
<path d="M23.6524 1.50455C22.9587 0.811916 22.0185 0.42289 21.0382 0.42289C20.0579 0.42289 19.1177 0.811916 18.424 1.50455L1.82872 18.0998C1.35348 18.5724 0.976673 19.1345 0.720086 19.7537C0.463499 20.3728 0.332232 21.0367 0.333878 21.7069V23.8017C0.333878 24.0723 0.441381 24.3318 0.632737 24.5232C0.824094 24.7145 1.08363 24.822 1.35425 24.822H3.44907C4.11921 24.8239 4.78307 24.6929 5.40222 24.4365C6.02136 24.1801 6.5835 23.8034 7.05608 23.3282L23.6524 6.7319C24.3447 6.03825 24.7336 5.09826 24.7336 4.11823C24.7336 3.13819 24.3447 2.1982 23.6524 1.50455ZM5.61327 21.8854C5.03779 22.4571 4.26023 22.779 3.44907 22.7813H2.37462V21.7069C2.37359 21.3047 2.45233 20.9064 2.60628 20.5349C2.76024 20.1634 2.98635 19.8262 3.27152 19.5427L15.866 6.94822L18.2128 9.29507L5.61327 21.8854ZM22.2086 5.2891L19.6515 7.84717L17.3047 5.50542L19.8627 2.94735C20.0168 2.79359 20.1997 2.67168 20.4009 2.5886C20.6021 2.50551 20.8177 2.46287 21.0354 2.4631C21.2531 2.46334 21.4686 2.50645 21.6697 2.58998C21.8707 2.6735 22.0533 2.7958 22.2071 2.9499C22.3608 3.104 22.4827 3.28687 22.5658 3.48808C22.6489 3.68929 22.6915 3.90489 22.6913 4.12258C22.6911 4.34027 22.6479 4.55578 22.5644 4.75681C22.4809 4.95783 22.3586 5.14044 22.2045 5.2942L22.2086 5.2891Z" fill="#044C3E" fill-opacity="0.4"/>
</svg>
