<svg width="39" height="39" viewBox="0 0 39 39" fill="none" xmlns="http://www.w3.org/2000/svg">
<path d="M35.2004 16.045H22.4305V3.27501C22.4305 2.42831 22.0941 1.61629 21.4954 1.01758C20.8967 0.418871 20.0847 0.0825195 19.238 0.0825195C18.3913 0.0825195 17.5792 0.418871 16.9805 1.01758C16.3818 1.61629 16.0455 2.42831 16.0455 3.27501V16.045H3.2755C2.4288 16.045 1.61678 16.3813 1.01807 16.98C0.419359 17.5788 0.0830078 18.3908 0.0830078 19.2375C0.0830078 20.0842 0.419359 20.8962 1.01807 21.4949C1.61678 22.0936 2.4288 22.43 3.2755 22.43H16.0455V35.1999C16.0455 36.0466 16.3818 36.8587 16.9805 37.4574C17.5792 38.0561 18.3913 38.3924 19.238 38.3924C20.0847 38.3924 20.8967 38.0561 21.4954 37.4574C22.0941 36.8587 22.4305 36.0466 22.4305 35.1999V22.43H35.2004C36.0471 22.43 36.8592 22.0936 37.4579 21.4949C38.0566 20.8962 38.3929 20.0842 38.3929 19.2375C38.3929 18.3908 38.0566 17.5788 37.4579 16.98C36.8592 16.3813 36.0471 16.045 35.2004 16.045Z" fill="#AFAFAF"/>
</svg>
