<svg width="21" height="21" viewBox="0 0 21 21" fill="none" xmlns="http://www.w3.org/2000/svg">
<path d="M15.6752 2.16036H15.2685V1.75372C15.2685 1.43018 15.14 1.11989 14.9112 0.891116C14.6824 0.662339 14.3722 0.533813 14.0486 0.533813V0.533813C13.7251 0.533813 13.4148 0.662339 13.186 0.891116C12.9572 1.11989 12.8287 1.43018 12.8287 1.75372V2.16036H7.94908V1.75372C7.94908 1.43018 7.82056 1.11989 7.59178 0.891116C7.363 0.662339 7.05272 0.533813 6.72918 0.533813V0.533813C6.40564 0.533813 6.09535 0.662339 5.86657 0.891116C5.63779 1.11989 5.50927 1.43018 5.50927 1.75372V2.16036H5.10263C3.91632 2.16036 2.7786 2.63162 1.93975 3.47047C1.1009 4.30932 0.629639 5.44704 0.629639 6.63335L0.629639 15.5793C0.629639 16.7656 1.1009 17.9034 1.93975 18.7422C2.7786 19.5811 3.91632 20.0523 5.10263 20.0523H15.6752C16.8615 20.0523 17.9992 19.5811 18.838 18.7422C19.6769 17.9034 20.1482 16.7656 20.1482 15.5793V6.63335C20.1482 5.44704 19.6769 4.30932 18.838 3.47047C17.9992 2.63162 16.8615 2.16036 15.6752 2.16036V2.16036ZM15.6752 17.6125H5.10263C4.5634 17.6125 4.04625 17.3983 3.66496 17.017C3.28366 16.6357 3.06945 16.1186 3.06945 15.5793V8.66653H17.7083V15.5793C17.7083 16.1186 17.4941 16.6357 17.1128 17.017C16.7315 17.3983 16.2144 17.6125 15.6752 17.6125Z" fill="white"/>
</svg>
