<svg width="24" height="24" xmlns="http://www.w3.org/2000/svg" xmlns:svg="http://www.w3.org/2000/svg">
 <g class="layer">
  <title>Layer 1</title>
  <path d="m23,1c-0.34,-0.34 -0.81,-0.54 -1.3,-0.54c-0.48,0 -0.95,0.2 -1.29,0.54l-8.41,8.41l-8.41,-8.41c-0.34,-0.34 -0.81,-0.54 -1.29,-0.54c-0.49,0 -0.96,0.2 -1.3,0.54c-0.34,0.34 -0.54,0.81 -0.54,1.3c0,0.48 0.2,0.95 0.54,1.29l8.41,8.41l-8.41,8.41c-0.34,0.34 -0.54,0.81 -0.54,1.29c0,0.49 0.2,0.96 0.54,1.3c0.34,0.34 0.81,0.54 1.3,0.54c0.48,0 0.95,-0.2 1.29,-0.54l8.41,-8.41l8.41,8.41c0.34,0.34 0.81,0.54 1.29,0.54c0.49,0 0.96,-0.2 1.3,-0.54c0.34,-0.34 0.54,-0.81 0.54,-1.3c0,-0.48 -0.2,-0.95 -0.54,-1.29l-8.41,-8.41l8.41,-8.41c0.34,-0.34 0.54,-0.81 0.54,-1.29c0,-0.49 -0.2,-0.96 -0.54,-1.3l0,0z" fill="#ffffff" id="svg_1"/>
 </g>
</svg>